#!OML:ASF G:\JayActor3\Patient Classification 1\Patient 1\Session 6\male.ASF
:FULLY-SPECIFIED
:DEGREES
1341
root -33.3604 16.5403 -15.7731 177.871 -3.33557 -176.852
lowerback 9.20002 -1.42445 -1.33918
upperback 2.55773 -2.35658 -2.54661
thorax -2.55773 -1.27927 -1.61116
lowerneck -12.8608 1.89383 1.65727
upperneck 3.80274 2.53732 -2.78664
head 3.60576 1.18781 -1.04159
rclavicle 1.55052e-014 -2.38542e-014
rhumerus -36.7913 -5.28602 -83.4955
rradius 34.6976
rwrist 0.786496
rhand -21.7813 -12.0935
rfingers 7.12502
rthumb 4.61996 -42.0232
lclavicle 1.55052e-014 -2.38542e-014
lhumerus -5.44195 -9.30771 71.5621
lradius 45.39
lwrist 29.0568
lhand -24.6907 11.2139
lfingers 7.12502
lthumb 1.81033 41.1859
rfemur -19.7307 -0.857173 12.1426
rtibia 67.3364
rfoot 0.316602 -10.2188
rtoes -0.646452
lfemur -7.71283 19.3888 -16.1403
ltibia 26.2756
lfoot -14.4773 15.1222
ltoes -8.75314
1342
root -33.3528 16.5409 -15.7757 177.759 -3.50019 -176.739
lowerback 9.35797 -1.472 -1.18891
upperback 2.73108 -2.4213 -2.55616
thorax -2.47315 -1.31858 -1.69631
lowerneck -12.862 1.86354 1.62075
upperneck 3.70549 2.50645 -2.81132
head 3.57065 1.17288 -1.04524
rclavicle 2.36554e-014 7.4743e-014
rhumerus -36.8155 -5.15896 -83.7628
rradius 35.0058
rwrist 0.631488
rhand -21.7528 -12.0658
rfingers 7.12502
rthumb 4.6475 -41.9948
lclavicle 2.36554e-014 7.4743e-014
lhumerus -5.19716 -9.79743 71.6831
lradius 45.4322
lwrist 28.9296
lhand -24.6313 11.0652
lfingers 7.12502
lthumb 1.86763 41.0367
rfemur -20.3206 -1.26003 12.2832
rtibia 67.7126
rfoot -0.527972 -9.96325
rtoes -1.8534
lfemur -7.66004 19.2147 -15.9952
ltibia 26.3404
lfoot -14.3228 15.2446
ltoes -8.65994
1343
root -33.3435 16.5426 -15.7796 177.665 -3.6467 -176.617
lowerback 9.47836 -1.50711 -1.03954
upperback 2.8955 -2.46713 -2.55587
thorax -2.37632 -1.34775 -1.77389
lowerneck -12.8538 1.82452 1.55949
upperneck 3.6293 2.46633 -2.81792
head 3.54012 1.15344 -1.03913
rclavicle -1.53064e-014 -5.56597e-014
rhumerus -36.8398 -5.01358 -84.0231
rradius 35.2855
rwrist 0.499685
rhand -21.6547 -12.0492
rfingers 7.12502
rthumb 4.74218 -41.9761
lclavicle -1.53064e-014 -5.56597e-014
lhumerus -4.96903 -10.2472 71.8488
lradius 45.3733
lwrist 28.7756
lhand -24.5481 10.9492
lfingers 7.12502
lthumb 1.94797 40.9201
rfemur -20.8809 -1.60001 12.4484
rtibia 67.9731
rfoot -1.61091 -9.87381
rtoes -2.54981
lfemur -7.63124 19.0794 -15.8298
ltibia 26.4256
lfoot -14.2208 15.3194
ltoes -8.58386
1344
root -33.3328 16.5441 -15.7847 177.578 -3.78015 -176.503
lowerback 9.575 -1.53005 -0.903091
upperback 3.05399 -2.49698 -2.55093
thorax -2.27147 -1.36853 -1.8419
lowerneck -12.8449 1.78071 1.49033
upperneck 3.58123 2.4204 -2.81897
head 3.51903 1.13074 -1.03023
rclavicle -2.18663e-014 0
rhumerus -36.8636 -4.8589 -84.2721
rradius 35.5387
rwrist 0.401268
rhand -21.4869 -12.0513
rfingers 7.12502
rthumb 4.90425 -41.9745
lclavicle -2.18663e-014 0
lhumerus -4.76536 -10.6608 72.0583
lradius 45.2283
lwrist 28.6026
lhand -24.4427 10.8592
lfingers 7.12502
lthumb 2.04982 40.8291
rfemur -21.4036 -1.88781 12.6266
rtibia 68.1169
rfoot -2.84331 -9.89398
rtoes -3.22401
lfemur -7.6039 18.9186 -15.6613
ltibia 26.5233
lfoot -14.2282 15.3643
ltoes -8.15542
1345
root -33.321 16.5451 -15.791 177.492 -3.91115 -176.399
lowerback 9.6531 -1.54368 -0.776072
upperback 3.2099 -2.51499 -2.54497
thorax -2.15835 -1.38319 -1.90553
lowerneck -12.7981 1.73944 1.45351
upperneck 3.5288 2.37464 -2.85037
head 3.49028 1.10744 -1.03741
rclavicle -1.19271e-015 -3.49861e-014
rhumerus -36.8838 -4.71584 -84.5041
rradius 35.7636
rwrist 0.351279
rhand -21.2425 -12.0374
rfingers 7.12502
rthumb 5.14025 -41.9551
lclavicle -1.19271e-015 -3.49861e-014
lhumerus -4.58757 -11.0345 72.3139
lradius 45.0052
lwrist 28.401
lhand -24.3291 10.7971
lfingers 7.12502
lthumb 2.15949 40.7659
rfemur -21.8764 -2.14181 12.8042
rtibia 68.137
rfoot -4.16102 -9.95814
rtoes -4.0422
lfemur -7.57714 18.7749 -15.4976
ltibia 26.6285
lfoot -14.2451 15.4063
ltoes -7.81671
1346
root -33.3081 16.5452 -15.7984 177.404 -4.04146 -176.311
lowerback 9.71347 -1.55132 -0.66393
upperback 3.36374 -2.52638 -2.54007
thorax -2.03684 -1.39441 -1.96325
lowerneck -12.7247 1.70293 1.45293
upperneck 3.47984 2.33166 -2.91634
head 3.45905 1.08458 -1.06253
rclavicle -9.93923e-016 -9.54166e-015
rhumerus -36.9004 -4.57958 -84.7217
rradius 35.9648
rwrist 0.346583
rhand -20.9306 -12.0254
rfingers 7.12502
rthumb 5.44138 -41.9355
lclavicle -9.93923e-016 -9.54166e-015
lhumerus -4.4435 -11.3527 72.613
lradius 44.7151
lwrist 28.1667
lhand -24.19 10.7548
lfingers 7.12502
lthumb 2.29383 40.7223
rfemur -22.2926 -2.35442 12.9722
rtibia 68.029
rfoot -5.5466 -10.0389
rtoes -4.96227
lfemur -7.54746 18.6415 -15.3444
ltibia 26.7375
lfoot -14.2644 15.4521
ltoes -7.57233
1347
root -33.2941 16.5442 -15.8068 177.317 -4.17152 -176.245
lowerback 9.75394 -1.55051 -0.568664
upperback 3.51554 -2.5283 -2.54041
thorax -1.90574 -1.40083 -2.01868
lowerneck -12.6309 1.66614 1.4658
upperneck 3.44288 2.28604 -2.98681
head 3.42836 1.0602 -1.0918
rclavicle 0 2.54444e-014
rhumerus -36.9105 -4.45644 -84.9249
rradius 36.1403
rwrist 0.375386
rhand -20.5724 -12.0336
rfingers 7.12502
rthumb 5.7872 -41.9346
lclavicle 0 2.54444e-014
lhumerus -4.3354 -11.6181 72.9578
lradius 44.3709
lwrist 27.8884
lhand -24.0299 10.7335
lfingers 7.12502
lthumb 2.44847 40.6992
rfemur -22.6483 -2.51334 13.1173
rtibia 67.7881
rfoot -6.98987 -10.12
rtoes -5.8036
lfemur -7.5133 18.5081 -15.2084
ltibia 26.8462
lfoot -14.3007 15.4915
ltoes -7.35319
